<mxfile host="Electron" modified="2024-05-27T16:46:48.404Z" agent="Mozilla/5.0 (X11; Linux x86_64) AppleWebKit/537.36 (KHTML, like Gecko) draw.io/24.4.8 Chrome/124.0.6367.207 Electron/30.0.6 Safari/537.36" etag="stHThEAb_wJoNfNfNIU0" version="24.4.8" type="device">
  <diagram name="Page-1" id="n5tWPrWNuRt7XzbXJX-f">
    <mxGraphModel dx="327" dy="657" grid="1" gridSize="10" guides="1" tooltips="1" connect="1" arrows="1" fold="1" page="1" pageScale="1" pageWidth="827" pageHeight="1169" math="0" shadow="0">
      <root>
        <mxCell id="0" />
        <mxCell id="1" parent="0" />
        <mxCell id="TT0pqXbpLtF2YJ8PMENa-1" value="User" style="text;html=1;align=center;verticalAlign=middle;resizable=0;points=[];autosize=1;strokeColor=none;fillColor=none;" vertex="1" parent="1">
          <mxGeometry x="65" y="38" width="50" height="30" as="geometry" />
        </mxCell>
        <mxCell id="TT0pqXbpLtF2YJ8PMENa-2" value="Create New Note" style="whiteSpace=wrap;html=1;" vertex="1" parent="1">
          <mxGeometry x="40" y="110" width="120" height="60" as="geometry" />
        </mxCell>
        <mxCell id="TT0pqXbpLtF2YJ8PMENa-3" value="View a particular note" style="whiteSpace=wrap;html=1;" vertex="1" parent="1">
          <mxGeometry x="40" y="360" width="120" height="60" as="geometry" />
        </mxCell>
        <mxCell id="TT0pqXbpLtF2YJ8PMENa-4" value="View all notes" style="whiteSpace=wrap;html=1;" vertex="1" parent="1">
          <mxGeometry x="40" y="240" width="120" height="60" as="geometry" />
        </mxCell>
        <mxCell id="TT0pqXbpLtF2YJ8PMENa-5" value="Update a particular note" style="whiteSpace=wrap;html=1;" vertex="1" parent="1">
          <mxGeometry x="40" y="480" width="120" height="60" as="geometry" />
        </mxCell>
        <mxCell id="TT0pqXbpLtF2YJ8PMENa-6" value="Delete a note" style="whiteSpace=wrap;html=1;" vertex="1" parent="1">
          <mxGeometry x="40" y="600" width="120" height="60" as="geometry" />
        </mxCell>
        <mxCell id="TT0pqXbpLtF2YJ8PMENa-20" style="edgeStyle=orthogonalEdgeStyle;rounded=0;orthogonalLoop=1;jettySize=auto;html=1;entryX=0.5;entryY=0;entryDx=0;entryDy=0;" edge="1" parent="1" source="TT0pqXbpLtF2YJ8PMENa-7" target="TT0pqXbpLtF2YJ8PMENa-9">
          <mxGeometry relative="1" as="geometry" />
        </mxCell>
        <mxCell id="TT0pqXbpLtF2YJ8PMENa-7" value="Start" style="whiteSpace=wrap;html=1;" vertex="1" parent="1">
          <mxGeometry x="480" y="110" width="120" height="60" as="geometry" />
        </mxCell>
        <mxCell id="TT0pqXbpLtF2YJ8PMENa-9" value="View all notes from meta file(with ID)" style="whiteSpace=wrap;html=1;" vertex="1" parent="1">
          <mxGeometry x="480" y="240" width="120" height="60" as="geometry" />
        </mxCell>
        <mxCell id="TT0pqXbpLtF2YJ8PMENa-12" style="edgeStyle=orthogonalEdgeStyle;rounded=0;orthogonalLoop=1;jettySize=auto;html=1;entryX=1;entryY=0.5;entryDx=0;entryDy=0;" edge="1" parent="1" source="TT0pqXbpLtF2YJ8PMENa-10" target="TT0pqXbpLtF2YJ8PMENa-2">
          <mxGeometry relative="1" as="geometry" />
        </mxCell>
        <mxCell id="TT0pqXbpLtF2YJ8PMENa-13" style="edgeStyle=orthogonalEdgeStyle;rounded=0;orthogonalLoop=1;jettySize=auto;html=1;entryX=1;entryY=0.5;entryDx=0;entryDy=0;" edge="1" parent="1" source="TT0pqXbpLtF2YJ8PMENa-10" target="TT0pqXbpLtF2YJ8PMENa-3">
          <mxGeometry relative="1" as="geometry" />
        </mxCell>
        <mxCell id="TT0pqXbpLtF2YJ8PMENa-15" style="edgeStyle=orthogonalEdgeStyle;rounded=0;orthogonalLoop=1;jettySize=auto;html=1;entryX=1;entryY=0.5;entryDx=0;entryDy=0;" edge="1" parent="1" source="TT0pqXbpLtF2YJ8PMENa-10" target="TT0pqXbpLtF2YJ8PMENa-6">
          <mxGeometry relative="1" as="geometry" />
        </mxCell>
        <mxCell id="TT0pqXbpLtF2YJ8PMENa-22" style="edgeStyle=orthogonalEdgeStyle;rounded=0;orthogonalLoop=1;jettySize=auto;html=1;entryX=0.5;entryY=0;entryDx=0;entryDy=0;" edge="1" parent="1" source="TT0pqXbpLtF2YJ8PMENa-10" target="TT0pqXbpLtF2YJ8PMENa-11">
          <mxGeometry relative="1" as="geometry" />
        </mxCell>
        <mxCell id="TT0pqXbpLtF2YJ8PMENa-10" value="MENU to ask for operation" style="whiteSpace=wrap;html=1;" vertex="1" parent="1">
          <mxGeometry x="480" y="360" width="120" height="60" as="geometry" />
        </mxCell>
        <mxCell id="TT0pqXbpLtF2YJ8PMENa-23" style="edgeStyle=orthogonalEdgeStyle;rounded=0;orthogonalLoop=1;jettySize=auto;html=1;entryX=1;entryY=0.5;entryDx=0;entryDy=0;" edge="1" parent="1" source="TT0pqXbpLtF2YJ8PMENa-11" target="TT0pqXbpLtF2YJ8PMENa-7">
          <mxGeometry relative="1" as="geometry">
            <Array as="points">
              <mxPoint x="760" y="560" />
              <mxPoint x="760" y="140" />
            </Array>
          </mxGeometry>
        </mxCell>
        <mxCell id="TT0pqXbpLtF2YJ8PMENa-11" value="Update Meta file" style="whiteSpace=wrap;html=1;" vertex="1" parent="1">
          <mxGeometry x="480" y="530" width="120" height="60" as="geometry" />
        </mxCell>
        <mxCell id="TT0pqXbpLtF2YJ8PMENa-14" style="edgeStyle=orthogonalEdgeStyle;rounded=0;orthogonalLoop=1;jettySize=auto;html=1;entryX=1.04;entryY=0.567;entryDx=0;entryDy=0;entryPerimeter=0;" edge="1" parent="1" source="TT0pqXbpLtF2YJ8PMENa-10" target="TT0pqXbpLtF2YJ8PMENa-5">
          <mxGeometry relative="1" as="geometry">
            <Array as="points">
              <mxPoint x="540" y="450" />
              <mxPoint x="190" y="450" />
              <mxPoint x="190" y="514" />
            </Array>
          </mxGeometry>
        </mxCell>
        <mxCell id="TT0pqXbpLtF2YJ8PMENa-17" value="Once DONE" style="text;html=1;align=center;verticalAlign=middle;resizable=0;points=[];autosize=1;strokeColor=none;fillColor=none;" vertex="1" parent="1">
          <mxGeometry x="540" y="470" width="90" height="30" as="geometry" />
        </mxCell>
        <mxCell id="TT0pqXbpLtF2YJ8PMENa-21" style="edgeStyle=orthogonalEdgeStyle;rounded=0;orthogonalLoop=1;jettySize=auto;html=1;entryX=0.494;entryY=-0.065;entryDx=0;entryDy=0;entryPerimeter=0;" edge="1" parent="1" source="TT0pqXbpLtF2YJ8PMENa-9" target="TT0pqXbpLtF2YJ8PMENa-10">
          <mxGeometry relative="1" as="geometry" />
        </mxCell>
      </root>
    </mxGraphModel>
  </diagram>
</mxfile>
